{"title":"A.Nightmare.on.Elm.Street.Part.2.Freddy's.Revenge.1985.BRrip.72","uid":6899955,"size":2331337263,"categoryP":"video","categoryS":"hd___movies","magnet":"?xt=urn:btih:1d69bfdf953d00517244bdfb89730aa072a42b80&amp;dn=A.Nightmare.on.Elm.Street.Part.2.Freddy%5C%27s.Revenge.1985.BRrip.72&amp;tr=udp%3A%2F%2Ftracker.openbittorrent.com%3A80&amp;tr=udp%3A%2F%2Fopen.demonii.com%3A1337&amp;tr=udp%3A%2F%2Ftracker.coppersurfer.tk%3A6969&amp;tr=udp%3A%2F%2Fexodus.desync.com%3A6969","seeders":0,"leechers":1,"uploader":"mshareefb","files":10,"time":1324357641,"description":"A.Nightmare.on.Elm.Street.Part.2.Freddy's.Revenge.1985.BRrip.720p.Dual.Audio.Eng-Hindi~MSBHATTI\n\nIMDB:- http://www.imdb.com/title/tt0089686/\n\nPlot:- A teenage boy is haunted in his dreams by Freddy Krueger who is out to possess him to continue his murdering in the real world.\n\nDirector: Jack Sholder\nWriters: David Chaskin, Wes Craven (characters)\nStars: Robert Englund, Mark Patton and Kim Myers \n\nINFO:-\n\nGeneral\nComplete name                    : A.Nightmare.on.Elm.Street.Part.2.Freddy's.Revenge.1985.BRrip.720p.Dual.Audio.Eng-Hindi~MSBHATTI\nFormat                           : Matroska\nFile size                        : 2.12 GiB\nDuration                         : 1h 22mn\nOverall bit rate                 : 3 703 Kbps\nEncoded date                     : UTC 2011-12-05 14:13:25\nWriting application              : mkvmerge v3.3.0 ('Language') built on Mar 24 2010 14:59:24\nWriting library                  : libebml v0.8.0 + libmatroska v0.9.0\n\nVideo\nID                               : 1\nFormat                           : AVC\nFormat/Info                      : Advanced Video Codec\nFormat profile                   : &lt;a class=&quot;__cf_email__&quot; href=&quot;/cdn-cgi/l/email-protection&quot; data-cfemail=&quot;fcb4959b94bcb0c8d2cd&quot;&gt;[email&amp;#160;protected]&lt;/a&gt;&lt;script cf-hash='f9e31' type=&quot;text/javascript&quot;&gt;\n/* &lt;![CDATA[ */!function(){try{var t=&quot;currentScript&quot;in document?document.currentScript:function(){for(var t=document.getElementsByTagName(&quot;script&quot;),e=t.length;e--;)if(t[e].getAttribute(&quot;cf-hash&quot;))return t[e]}();if(t&amp;&amp;t.previousSibling){var e,r,n,i,c=t.previousSibling,a=c.getAttribute(&quot;data-cfemail&quot;);if(a){for(e=&quot;&quot;,r=parseInt(a.substr(0,2),16),n=2;a.length-n;n+=2)i=parseInt(a.substr(n,2),16)^r,e+=String.fromCharCode(i);e=document.createTextNode(e),c.parentNode.replaceChild(e,c)}}}catch(u){}}();/* ]]&gt; */&lt;/script&gt;\nFormat settings, CABAC           : Yes\nFormat settings, ReFrames        : 6 frames\nCodec ID                         : V_MPEG4/ISO/AVC\nDuration                         : 1h 22mn\nBit rate                         : 2 800 Kbps\nWidth                            : 1 280 pixels\nHeight                           : 720 pixels\nDisplay aspect ratio             : 16:9\nFrame rate                       : 25.000 fps\nOriginal frame rate              : 23.976 fps\nColor space                      : YUV\nChroma subsampling               : 4:2:0\nBit depth                        : 8 bits\nScan type                        : Progressive\nBits/(Pixel*Frame)               : 0.122\nStream size                      : 1.64 GiB (77%)\nTitle                            : MSBHATTI\nWriting library                  : x264 core 116 r2074 2641b9e\nEncoding settings                : cabac=1 / ref=6 / deblock=1:-2:-2 / analyse=0x3:0x133 / me=umh / subme=10 / psy=1 / psy_rd=1.50:0.00 / mixed_ref=1 / me_range=32 / chroma_me=1 / trellis=2 / 8x8dct=1 / cqm=0 / deadzone=21,11 / fast_pskip=1 / chroma_qp_offset=-2 / threads=12 / sliced_threads=0 / nr=0 / decimate=1 / interlaced=0 / bluray_compat=0 / constrained_intra=0 / bframes=6 / b_pyramid=2 / b_adapt=2 / b_bias=0 / direct=1 / weightb=1 / open_gop=0 / weightp=2 / keyint=250 / keyint_min=23 / scenecut=40 / intra_refresh=0 / rc_lookahead=50 / rc=2pass / mbtree=1 / bitrate=2800 / ratetol=1.0 / qcomp=0.60 / qpmin=10 / qpmax=51 / qpstep=4 / cplxblur=20.0 / qblur=0.5 / ip_ratio=1.40 / aq=1:1.50\nLanguage                         : English\n\nAudio #1\nID                               : 2\nFormat                           : AC-3\nFormat/Info                      : Audio Coding 3\nMode extension                   : CM (complete main)\nCodec ID                         : A_AC3\nDuration                         : 1h 22mn\nBit rate mode                    : Constant\nBit rate                         : 512 Kbps\nChannel(s)                       : 6 channels\nChannel positions                : Front: L C R, Side: L R, LFE\nSampling rate                    : 48.0 KHz\nBit depth                        : 16 bits\nCompression mode                 : Lossy\nStream size                      : 301 MiB (14%)\nTitle                            : MSBHATTI\nLanguage                         : English\n\nAudio #2\nID                               : 3\nFormat                           : MPEG Audio\nFormat version                   : Version 1\nFormat profile                   : Layer 3\nCodec ID                         : A_MPEG/L3\nCodec ID/Hint                    : MP3\nDuration                         : 1h 22mn\nBit rate mode                    : Constant\nBit rate                         : 256 Kbps\nChannel(s)                       : 2 channels\nSampling rate                    : 48.0 KHz\nCompression mode                 : Lossy\nStream size                      : 150 MiB (7%)\nTitle                            : MSBHATTI\nLanguage                         : Hindi\n\nSCREENSHOTS:-\n[IMG]http://i.imgur.com/IYanU.jpg[/IMG]\n[IMG]http://i.imgur.com/CCiOm.jpg[/IMG]\n[IMG]http://i.imgur.com/anxHX.jpg[/IMG]\n[IMG]http://i.imgur.com/iGrVz.jpg[/IMG]\n[IMG]http://i.imgur.com/DPv7k.jpg[/IMG]\n\nNOTE:- IF U LIKE MY WORK SO COMMENT PLZ\n\nREGARDS\n\nMSBHATTI","torrent":{"xt":"urn:btih:1d69bfdf953d00517244bdfb89730aa072a42b80","amp;dn":"A.Nightmare.on.Elm.Street.Part.2.Freddy%5C%27s.Revenge.1985.BRrip.72","amp;tr":["udp%3A%2F%2Ftracker.openbittorrent.com%3A80","udp%3A%2F%2Fopen.demonii.com%3A1337","udp%3A%2F%2Ftracker.coppersurfer.tk%3A6969","udp%3A%2F%2Fexodus.desync.com%3A6969"],"infoHash":"1d69bfdf953d00517244bdfb89730aa072a42b80","infoHashBuffer":{"type":"Buffer","data":[29,105,191,223,149,61,0,81,114,68,189,251,137,115,10,160,114,164,43,128]},"announce":[],"urlList":[]}}